<?xml version="1.0" encoding="UTF-8"?>
<!DOCTYPE svg PUBLIC "-//W3C//DTD SVG 1.1//EN" "http://www.w3.org/Graphics/SVG/1.1/DTD/svg11.dtd">
<!-- Creator: CorelDRAW 2017 -->
<svg xmlns="http://www.w3.org/2000/svg" xml:space="preserve" width="30px" height="30px" version="1.1" style="shape-rendering:geometricPrecision; text-rendering:geometricPrecision; image-rendering:optimizeQuality; fill-rule:evenodd; clip-rule:evenodd"
viewBox="0 0 12.04 12.04"
 xmlns:xlink="http://www.w3.org/1999/xlink">
 <defs>
  <style type="text/css">
   <![CDATA[
    .fil0 {fill:#E95721}
   ]]>
  </style>
 </defs>
 <g id="Layer_x0020_1">
  <metadata id="CorelCorpID_0Corel-Layer"/>
  <path class="fil0" d="M12.04 9.82l0 1.28 0 0.6c0,0.19 -0.15,0.34 -0.34,0.34l-11.36 0c-0.19,0 -0.34,-0.15 -0.34,-0.34l0 -11.36c0,-0.19 0.15,-0.34 0.34,-0.34 1.47,0 2.93,0 4.4,0 0.19,0 0.34,0.15 0.34,0.34l0 1.2c0,0.19 0.15,0.34 0.34,0.34l1.2 0c0.19,0 0.34,-0.15 0.34,-0.34l0 -1.2c0,-0.19 0.15,-0.34 0.34,-0.34 1.47,0 2.93,0 4.4,0 0.19,0 0.34,0.15 0.34,0.34l0 0.6 0 3.42 0 1.27 0 2.09 0 2.1zm-0.94 0.94l0 -0.94 0 -4.19 0 -1.27 0 -3.08c0,-0.19 -0.15,-0.34 -0.34,-0.34l-2.52 0c-0.19,0 -0.34,0.15 -0.34,0.34l0 1.2c0,0.19 -0.15,0.34 -0.34,0.34l-3.08 0c-0.19,0 -0.34,-0.15 -0.34,-0.34l0 -1.2c0,-0.19 -0.15,-0.34 -0.34,-0.34l-2.52 0c-0.19,0 -0.34,0.15 -0.34,0.34l0 9.48c0,0.19 0.15,0.34 0.34,0.34l9.24 0 0.24 0c0.19,0 0.34,-0.15 0.34,-0.34zm-2.2 -3.14l0.59 0c0.19,0 0.34,-0.15 0.34,-0.33l0 -0.6c0,-0.18 -0.15,-0.33 -0.34,-0.33l-0.59 0c-0.18,0 -0.34,0.15 -0.34,0.33l0 0.6c0,0.18 0.16,0.33 0.34,0.33zm-6.35 0l0.59 0c0.18,0 0.34,-0.15 0.34,-0.33l0 -0.6c0,-0.18 -0.16,-0.33 -0.34,-0.33l-0.59 0c-0.19,0 -0.34,0.15 -0.34,0.33l0 0.6c0,0.18 0.15,0.33 0.34,0.33zm0.63 2.54l0.59 0c0.19,0 0.34,-0.15 0.34,-0.34l0 -0.59c0,-0.19 -0.15,-0.34 -0.34,-0.34l-0.59 0c-0.19,0 -0.34,0.15 -0.34,0.34l0 0.59c0,0.19 0.15,0.34 0.34,0.34zm5.09 0l0.59 0c0.19,0 0.34,-0.15 0.34,-0.34l0 -0.59c0,-0.19 -0.15,-0.34 -0.34,-0.34l-0.59 0c-0.19,0 -0.34,0.15 -0.34,0.34l0 0.59c0,0.19 0.15,0.34 0.34,0.34zm-2.55 0l0.6 0c0.18,0 0.33,-0.15 0.33,-0.34l0 -0.59c0,-0.19 -0.15,-0.34 -0.33,-0.34l-0.6 0c-0.18,0 -0.33,0.15 -0.33,0.34l0 0.59c0,0.19 0.15,0.34 0.33,0.34z"/>
 </g>
</svg>
